<svg xmlns="http://www.w3.org/2000/svg" viewBox="0 0 420 520" role="img" aria-label="Mira dark mode NPC portrait">
  <defs>
    <linearGradient id="coat" x1="0" y1="0" x2="1" y2="1">
      <stop offset="0" stop-color="#0f766e"/>
      <stop offset="1" stop-color="#172554"/>
    </linearGradient>
    <linearGradient id="halo" x1="0" y1="0" x2="1" y2="1">
      <stop offset="0" stop-color="#5eead4"/>
      <stop offset="1" stop-color="#a78bfa"/>
    </linearGradient>
  </defs>
  <ellipse cx="210" cy="466" rx="150" ry="34" fill="#020617" opacity="0.5"/>
  <path d="M88 468c10-112 62-178 122-178s112 66 122 178z" fill="url(#coat)"/>
  <circle cx="210" cy="188" r="104" fill="#ffd7ae"/>
  <path d="M105 164c18-86 76-124 140-104 54 17 82 60 72 119-35-36-83-54-143-54-28 0-51 15-69 39z" fill="#10223a"/>
  <path d="M116 160c22-52 71-82 127-68 31 8 55 25 72 51-54-24-120-28-199 17z" fill="#1e3a8a" opacity="0.75"/>
  <circle cx="174" cy="197" r="9" fill="#0f172a"/>
  <circle cx="246" cy="197" r="9" fill="#0f172a"/>
  <path d="M172 242c24 28 55 28 79 0" fill="none" stroke="#7c2d12" stroke-width="10" stroke-linecap="round"/>
  <path d="M70 332h280" stroke="url(#halo)" stroke-width="10" stroke-linecap="round" opacity="0.9"/>
  <rect x="57" y="82" width="16" height="330" rx="8" fill="#2dd4bf" opacity="0.62"/>
  <rect x="347" y="82" width="16" height="330" rx="8" fill="#a78bfa" opacity="0.62"/>
  <circle cx="332" cy="116" r="24" fill="#020617" stroke="#5eead4" stroke-width="7"/>
  <path d="M322 116h20M332 106v20" stroke="#5eead4" stroke-width="5" stroke-linecap="round"/>
</svg>
