<svg xmlns="http://www.w3.org/2000/svg" viewBox="0 0 960 540" role="img" aria-label="Dark learning dialogue room background">
  <defs>
    <linearGradient id="bg" x1="0" y1="0" x2="1" y2="1">
      <stop offset="0" stop-color="#06111f"/>
      <stop offset="0.55" stop-color="#0d2630"/>
      <stop offset="1" stop-color="#171127"/>
    </linearGradient>
    <linearGradient id="line" x1="0" y1="0" x2="1" y2="0">
      <stop offset="0" stop-color="#2dd4bf" stop-opacity="0"/>
      <stop offset="0.5" stop-color="#67e8f9" stop-opacity="0.8"/>
      <stop offset="1" stop-color="#a78bfa" stop-opacity="0"/>
    </linearGradient>
  </defs>
  <rect width="960" height="540" fill="url(#bg)"/>
  <g opacity="0.18" stroke="#5eead4" stroke-width="2">
    <path d="M0 120h960M0 240h960M0 360h960M0 480h960"/>
    <path d="M120 0v540M240 0v540M360 0v540M480 0v540M600 0v540M720 0v540M840 0v540"/>
  </g>
  <path d="M70 360c135-85 230-94 355-28 132 70 250 50 465-94" fill="none" stroke="url(#line)" stroke-width="16" stroke-linecap="round" opacity="0.8"/>
  <circle cx="218" cy="300" r="9" fill="#99f6e4"/>
  <circle cx="488" cy="352" r="13" fill="#67e8f9" opacity="0.8"/>
  <circle cx="746" cy="272" r="10" fill="#c4b5fd" opacity="0.85"/>
  <rect x="610" y="70" width="250" height="120" rx="18" fill="#020617" opacity="0.52" stroke="#2dd4bf" stroke-opacity="0.45"/>
  <path d="M640 126h38l22-34 44 74 22-40h64" fill="none" stroke="#5eead4" stroke-width="6" stroke-linecap="round" stroke-linejoin="round"/>
</svg>
