<svg xmlns="http://www.w3.org/2000/svg" viewBox="0 0 640 240" role="img" aria-labelledby="title desc">
  <title id="title">Signal route light preview</title>
  <desc id="desc">A light cyber route preview with a signal wave crossing a soft grid.</desc>
  <defs>
    <linearGradient id="bg" x1="0" x2="1" y1="0" y2="1">
      <stop offset="0" stop-color="#ecfeff"/>
      <stop offset="1" stop-color="#bae6fd"/>
    </linearGradient>
    <linearGradient id="wave" x1="0" x2="1">
      <stop offset="0" stop-color="#0891b2"/>
      <stop offset="1" stop-color="#10b981"/>
    </linearGradient>
  </defs>
  <rect width="640" height="240" fill="url(#bg)"/>
  <g fill="none" stroke="#0891b2" stroke-opacity=".16" stroke-width="2">
    <path d="M40 60h68l34 58-34 58H40L6 118zM176 60h68l34 58-34 58h-68l-34-58zM312 60h68l34 58-34 58h-68l-34-58zM448 60h68l34 58-34 58h-68l-34-58z"/>
  </g>
  <path d="M52 152c84-94 154 68 240-16 91-90 151 28 296-62" fill="none" stroke="url(#wave)" stroke-linecap="round" stroke-width="12"/>
  <circle cx="290" cy="136" r="14" fill="#0f766e"/>
  <circle cx="290" cy="136" r="32" fill="none" stroke="#0f766e" stroke-opacity=".24" stroke-width="8"/>
  <g fill="#0f172a">
    <path d="M120 94a14 14 0 0 1 14 14v24a14 14 0 1 1-28 0v-24a14 14 0 0 1 14-14z"/>
    <path d="M98 105a39 39 0 0 0 0 42l-8 8a50 50 0 0 1 0-58zm44 0 8-8a50 50 0 0 1 0 58l-8-8a39 39 0 0 0 0-42z" opacity=".72"/>
  </g>
</svg>
