<svg xmlns="http://www.w3.org/2000/svg" viewBox="0 0 160 160" role="img" aria-labelledby="title desc">
  <title id="title">Pickaxe</title>
  <desc id="desc">A simple stylized pickaxe with a wooden handle and teal metal head.</desc>
  <defs>
    <linearGradient id="handle" x1="65" x2="103" y1="49" y2="140" gradientUnits="userSpaceOnUse">
      <stop offset="0" stop-color="#b77935"/>
      <stop offset="1" stop-color="#6f3d1d"/>
    </linearGradient>
    <linearGradient id="metal" x1="22" x2="138" y1="36" y2="67" gradientUnits="userSpaceOnUse">
      <stop offset="0" stop-color="#9be7ff"/>
      <stop offset="0.5" stop-color="#35d2c7"/>
      <stop offset="1" stop-color="#0f7a93"/>
    </linearGradient>
    <filter id="shadow" x="-20%" y="-20%" width="140%" height="150%" color-interpolation-filters="sRGB">
      <feDropShadow dx="0" dy="5" stdDeviation="5" flood-color="#020617" flood-opacity="0.28"/>
    </filter>
  </defs>
  <g filter="url(#shadow)">
    <path fill="url(#handle)" d="M70.2 52.1c3.9-1.6 8.5.2 10.2 4.1l32.8 75.1c1.7 3.9-.1 8.5-4.1 10.2l-8.7 3.8c-3.9 1.7-8.5-.1-10.2-4.1L57.4 66.1c-1.7-3.9.1-8.5 4.1-10.2l8.7-3.8Z"/>
    <path fill="#f7c36a" opacity="0.58" d="M67.6 62.1c1.4-.6 3 .1 3.6 1.5l28.9 66.2c.6 1.4 0 3-1.4 3.6-.8.4-1.8.3-2.5-.2L64.9 65.9c-.5-1.4.2-3.2 2.7-3.8Z"/>
    <path fill="url(#metal)" d="M31.1 40.8c29.3-15.6 69.4-15.2 98.5 1.4 5.2 3 4.4 10.8-1.4 12.7-16.5 5.4-31.2 11.5-44.5 23.8-2.1 1.9-5.2 2.2-7.5.5l-13.9-10c-1.6-1.2-3.7-1.5-5.6-.8L34.4 77c-5.4 2.1-10.6-3.8-7.8-8.9l9.9-18.3-7.3 2.3c-7.2 2.3-12.2-7.8-5.7-11.6l7.6-4.4Z"/>
    <path fill="#e8fbff" opacity="0.8" d="M45.7 42.4c21.6-7.2 47.6-6.6 68.4 1.8 1.2.5 1.1 2.3-.2 2.6-18.2 4.3-34.8 9.8-49.4 20.8-.9.7-2.2.7-3.1 0l-8.8-6.1c-3-2.1-6.8-2.6-10.2-1.4l-6.6 2.4 6.5-12c1.1-2.2 1.4-5 .4-7.2.9-.3 1.9-.6 3-.9Z"/>
    <path fill="#07313a" opacity="0.28" d="M128.2 54.9c-16.5 5.4-31.2 11.5-44.5 23.8-2.1 1.9-5.2 2.2-7.5.5l-7.7-5.5c18.5-12.6 37.2-18.2 62.3-25.2 1.1 2.5.4 5.3-2.6 6.4Z"/>
    <circle cx="72.8" cy="60.4" r="7.2" fill="#092f38" opacity="0.68"/>
    <circle cx="72.8" cy="60.4" r="3.4" fill="#b7f7ff"/>
  </g>
</svg>
